<svg width="167" height="90" viewBox="0 0 167 90" fill="none" xmlns="http://www.w3.org/2000/svg">
<path d="M83.511 69.7615C83.511 69.7615 82.2562 50.9473 57.0124 50.9473L8.13021 51.2992C9.88211 55.8188 10.8436 60.7064 10.8436 65.8259C10.8436 71.6414 9.59692 77.1769 7.36426 82.1844" stroke="#222E29" stroke-width="2" stroke-miterlimit="10"/>
<path d="M83.3807 69.6974C82.2644 58.1145 75.3138 38.3323 42.4187 29.8371L17.2646 23.5337" stroke="#222E29" stroke-miterlimit="10"/>
<path d="M82.8925 66.042C83.1125 63.7782 83.2347 61.2825 83.1695 58.6107C82.7784 42.3162 75.6404 19.3183 44.375 1" stroke="#222E29" stroke-miterlimit="10"/>
<path d="M83.1279 69.6974C84.2443 58.1145 91.1948 38.3323 124.09 29.8371L149.244 23.5337" stroke="#222E29" stroke-miterlimit="10"/>
<path d="M83.6178 66.042C83.3978 63.7782 83.2756 61.2825 83.3408 58.6107C83.7319 42.3162 90.8699 19.3183 122.135 1" stroke="#222E29" stroke-miterlimit="10"/>
<path d="M83.2021 69.7615C83.2021 69.7615 84.457 50.9473 109.701 50.9473L158.583 51.2992C156.831 55.8188 155.87 60.7064 155.87 65.8259C155.87 71.6414 157.116 77.1769 159.349 82.1844" stroke="#222E29" stroke-width="2" stroke-miterlimit="10"/>
<path d="M109.195 66.5459L154.761 69.2816" stroke="#222E29" stroke-miterlimit="10"/>
<path d="M57.5502 66.5459L11.9844 69.2816" stroke="#222E29" stroke-miterlimit="10"/>
<path d="M89.802 75.9372C89.802 79.3528 86.9826 82.1206 83.5032 82.1206C80.0239 82.1206 77.2045 79.3528 77.2045 75.9372L77.1556 73.1054L3.60006 82.8245C1.96223 83.0405 0.813307 84.5124 1.02517 86.1202C1.23702 87.7281 2.74448 88.856 4.38231 88.648L71.3295 79.9848C72.8044 85.1843 77.6445 89 83.4055 89C89.1745 89 94.0228 85.1683 95.4895 79.9608L162.616 88.648C164.254 88.856 165.753 87.7281 165.973 86.1202C166.193 84.5124 165.036 83.0405 163.398 82.8245L89.9975 73.0654L89.802 75.9372Z" stroke="white" stroke-width="2" stroke-miterlimit="10"/>
</svg>
